<?xml version="1.0" encoding="utf-8"?>
<!-- Generator: Adobe Illustrator 18.1.1, SVG Export Plug-In . SVG Version: 6.00 Build 0)  -->
<!DOCTYPE svg PUBLIC "-//W3C//DTD SVG 1.1//EN" "http://www.w3.org/Graphics/SVG/1.1/DTD/svg11.dtd">
<svg version="1.1" id="Layer_1" xmlns="http://www.w3.org/2000/svg" xmlns:xlink="http://www.w3.org/1999/xlink" x="0px" y="0px"
	 viewBox="-41 164.9 512 512" enable-background="new -41 164.9 512 512" xml:space="preserve">
<g>
	<g>
		<path fill="#FFFFFF" d="M215,259.9c8.8,0,16-7.2,16-16v-32c0-8.8-7.2-16-16-16s-16,7.2-16,16v32C199,252.7,206.2,259.9,215,259.9z
			 M339.4,302.1l22.6-22.6c6.2-6.2,6.2-16.4,0-22.6c-6.2-6.2-16.4-6.2-22.6,0l-22.6,22.6c-6.2,6.2-6.2,16.4,0,22.6
			S333.2,308.3,339.4,302.1z M23,419.9h32c8.8,0,16-7.2,16-16s-7.2-16-16-16H23c-8.8,0-16,7.2-16,16S14.2,419.9,23,419.9z
			 M359,403.9c0,8.8,7.2,16,16,16h32c8.8,0,16-7.2,16-16s-7.2-16-16-16h-32C366.2,387.9,359,395.1,359,403.9z M90.5,302.1
			c6.3,6.2,16.4,6.2,22.6,0c6.3-6.2,6.3-16.4,0-22.6l-22.6-22.6c-6.2-6.2-16.4-6.2-22.6,0c-6.2,6.2-6.2,16.4,0,22.6L90.5,302.1z
			 M104.6,419.9h32c-1.1-5.2-1.6-10.5-1.6-16c0-44.2,35.8-80,80-80s80,35.8,80,80c0,5.5-0.6,10.8-1.6,16h32c0.8-5.3,1.6-10.5,1.6-16
			c0-61.8-50.2-112-112-112s-112,50.2-112,112C103,409.4,103.9,414.6,104.6,419.9z M407,451.9H23c-8.8,0-16,7.2-16,16s7.2,16,16,16
			h384c8.8,0,16-7.2,16-16S415.8,451.9,407,451.9z M407,515.9H23c-8.8,0-16,7.2-16,16s7.2,16,16,16h384c8.8,0,16-7.2,16-16
			S415.8,515.9,407,515.9z M407,579.9H23c-8.8,0-16,7.2-16,16s7.2,16,16,16h384c8.8,0,16-7.2,16-16S415.8,579.9,407,579.9z"/>
	</g>
</g>
</svg>
