<?xml version="1.0" encoding="utf-8"?>
<!-- Generator: Adobe Illustrator 18.1.1, SVG Export Plug-In . SVG Version: 6.00 Build 0)  -->
<!DOCTYPE svg PUBLIC "-//W3C//DTD SVG 1.1//EN" "http://www.w3.org/Graphics/SVG/1.1/DTD/svg11.dtd">
<svg version="1.1" id="Layer_1" xmlns="http://www.w3.org/2000/svg" xmlns:xlink="http://www.w3.org/1999/xlink" x="0px" y="0px"
	 viewBox="-41 164.9 512 512" enable-background="new -41 164.9 512 512" xml:space="preserve">
<g>
	<g>
		<path fill="#FFFFFF" d="M23,483.9h384c8.8,0,16-7.2,16-16s-7.2-16-16-16H23c-8.8,0-16,7.2-16,16S14.2,483.9,23,483.9z M407,515.9
			H23c-8.8,0-16,7.2-16,16s7.2,16,16,16h384c8.8,0,16-7.2,16-16S415.8,515.9,407,515.9z M407,579.9H23c-8.8,0-16,7.2-16,16
			s7.2,16,16,16h384c8.8,0,16-7.2,16-16S415.8,579.9,407,579.9z M164,419.9c-0.3-0.3-0.8-0.5-1.1-0.9c-37.4-37.4-37.4-98.3,0-135.8
			c2.6-2.5,5.3-5,8.1-7.2c-2.3,36,10.7,71.4,37.1,97.7c26.4,26.4,61.8,39.3,97.7,37.1c-2.7,3.4-5.9,6.1-8.9,9.1h41.5
			c5-8,9.2-16.8,12.6-26.1c2-5.9,0.5-12.3-3.8-16.7c-4.3-4.4-10.8-5.9-16.6-3.8c-35.4,12.5-73.6,4-99.9-22.2
			c-26.3-26.2-34.8-64.5-22.3-99.9c2.1-5.8,0.6-12.3-3.8-16.6c-4.3-4.4-10.8-5.8-16.6-3.8c-18.5,6.5-34.6,16.6-47.8,29.8
			c-43.2,43.2-48.9,109.8-17.3,159.3H164z"/>
	</g>
</g>
</svg>
