<?xml version="1.0" encoding="utf-8"?>
<!-- Generator: Adobe Illustrator 18.1.1, SVG Export Plug-In . SVG Version: 6.00 Build 0)  -->
<!DOCTYPE svg PUBLIC "-//W3C//DTD SVG 1.1//EN" "http://www.w3.org/Graphics/SVG/1.1/DTD/svg11.dtd">
<svg version="1.1" id="Layer_1" xmlns="http://www.w3.org/2000/svg" xmlns:xlink="http://www.w3.org/1999/xlink" x="0px" y="0px"
	 viewBox="-41 164.9 512 512" enable-background="new -41 164.9 512 512" xml:space="preserve">
<g>
	<g>
		<path fill="#FFFFFF" d="M359,228.9c-5.3,0-10.6,0.4-15.8,1.1c-29.9-40.7-77-65.1-128.2-65.1S116.7,189.3,86.8,230
			c-5.2-0.8-10.5-1.1-15.8-1.1c-61.8,0-112,50.3-112,112s50.2,112,112,112c13.7,0,27.1-2.5,39.7-7.3c29,25.2,65.8,39.3,104.3,39.3
			c38.5,0,75.3-14.1,104.3-39.3c12.6,4.8,26,7.3,39.7,7.3c61.8,0,112-50.2,112-112S420.8,228.9,359,228.9z M359,420.9
			c-17.1,0-32.9-5.5-45.9-14.7c-23.5,28.3-58.4,46.7-98.1,46.7c-39.6,0-74.6-18.4-98.1-46.7c-13,9.2-28.8,14.7-45.9,14.7
			c-44.2,0-80-35.8-80-80s35.8-80,80-80c10.8,0,21.1,2.2,30.4,6.1c21.2-41.4,63.9-70.1,113.6-70.1s92.3,28.7,113.5,70.1
			c9.4-3.9,19.7-6.1,30.5-6.1c44.2,0,80,35.8,80,80S403.2,420.9,359,420.9z M184,644.9c0,17.7,14.3,32,32,32s32-14.3,32-32
			s-32-64-32-64S184,627.2,184,644.9z M311,612.9c0,17.7,14.3,32,32,32s32-14.3,32-32s-32-64-32-64S311,595.2,311,612.9z M55,548.9
			c0,17.7,14.3,32,32,32s32-14.3,32-32s-32-64-32-64S55,531.2,55,548.9z"/>
	</g>
</g>
</svg>
