<?xml version="1.0" encoding="utf-8"?>
<!-- Generator: Adobe Illustrator 18.1.1, SVG Export Plug-In . SVG Version: 6.00 Build 0)  -->
<!DOCTYPE svg PUBLIC "-//W3C//DTD SVG 1.1//EN" "http://www.w3.org/Graphics/SVG/1.1/DTD/svg11.dtd">
<svg version="1.1" id="Layer_1" xmlns="http://www.w3.org/2000/svg" xmlns:xlink="http://www.w3.org/1999/xlink" x="0px" y="0px"
	 viewBox="-41 164.9 512 512" enable-background="new -41 164.9 512 512" xml:space="preserve">
<g>
	<g>
		<path fill="#FFFFFF" d="M215,308.9c-61.8,0-112,50.2-112,112s50.2,112,112,112s112-50.2,112-112S276.8,308.9,215,308.9z
			 M215,500.9c-44.2,0-80-35.8-80-80s35.8-80,80-80s80,35.8,80,80S259.2,500.9,215,500.9z M215,276.9c8.8,0,16-7.2,16-16v-32
			c0-8.8-7.2-16-16-16s-16,7.2-16,16v32C199,269.7,206.2,276.9,215,276.9z M215,564.9c-8.8,0-16,7.2-16,16v32c0,8.8,7.2,16,16,16
			s16-7.2,16-16v-32C231,572.1,223.8,564.9,215,564.9z M339.4,319.1l22.6-22.6c6.2-6.2,6.2-16.4,0-22.6s-16.4-6.2-22.6,0l-22.6,22.6
			c-6.2,6.2-6.2,16.4,0,22.6C323.1,325.3,333.2,325.3,339.4,319.1z M90.6,522.7l-22.6,22.6c-6.2,6.2-6.2,16.4,0,22.6
			s16.4,6.2,22.6,0l22.6-22.6c6.2-6.3,6.2-16.4,0-22.6C106.9,516.5,96.8,516.5,90.6,522.7z M71,420.9c0-8.8-7.2-16-16-16H23
			c-8.8,0-16,7.2-16,16s7.2,16,16,16h32C63.8,436.9,71,429.7,71,420.9z M407,404.9h-32c-8.8,0-16,7.2-16,16s7.2,16,16,16h32
			c8.8,0,16-7.2,16-16S415.8,404.9,407,404.9z M90.5,319.1c6.3,6.2,16.4,6.2,22.6,0c6.3-6.2,6.3-16.4,0-22.6l-22.6-22.6
			c-6.2-6.2-16.4-6.2-22.6,0c-6.2,6.2-6.2,16.4,0,22.6L90.5,319.1z M339.5,522.7c-6.3-6.2-16.4-6.2-22.6,0c-6.3,6.2-6.3,16.4,0,22.6
			l22.6,22.6c6.2,6.2,16.4,6.2,22.6,0s6.2-16.4,0-22.6L339.5,522.7z"/>
	</g>
</g>
</svg>
