<?xml version="1.0" encoding="utf-8"?>
<!-- Generator: Adobe Illustrator 18.1.1, SVG Export Plug-In . SVG Version: 6.00 Build 0)  -->
<!DOCTYPE svg PUBLIC "-//W3C//DTD SVG 1.1//EN" "http://www.w3.org/Graphics/SVG/1.1/DTD/svg11.dtd">
<svg version="1.1" id="Layer_1" xmlns="http://www.w3.org/2000/svg" xmlns:xlink="http://www.w3.org/1999/xlink" x="0px" y="0px"
	 viewBox="-41 164.9 512 512" enable-background="new -41 164.9 512 512" xml:space="preserve">
<g>
	<g>
		<path fill="#FFFFFF" d="M285,608.6l-18-10.4c0.5-3.1,1-6.3,1-9.6c0-3.3-0.4-6.5-1-9.6l18-10.4c8.4-4.9,11.3-15.7,6.5-24.1
			c-4.9-8.5-15.7-11.4-24.1-6.5l-18.2,10.5c-4.9-4.1-10.4-7.4-16.5-9.6V518c0-9.8-7.9-17.7-17.7-17.7s-17.7,7.9-17.7,17.7v20.9
			c-6.1,2.2-11.6,5.5-16.5,9.6L162.7,538c-8.5-4.9-19.3-2-24.2,6.5c-4.9,8.4-1.9,19.2,6.5,24.1l18,10.4c-0.6,3.1-1,6.3-1,9.6
			c0,3.3,0.4,6.5,1,9.6l-18,10.4c-8.5,4.9-11.4,15.8-6.5,24.2s15.7,11.3,24.1,6.4l18.2-10.4c4.9,4.1,10.4,7.4,16.5,9.6v20.9
			c0,9.7,7.9,17.6,17.7,17.6c9.8,0,17.7-7.9,17.7-17.6v-20.9c6.1-2.2,11.7-5.4,16.5-9.6l18.2,10.5c8.5,4.9,19.2,2,24.1-6.4
			C296.4,624.3,293.5,613.5,285,608.6z M215,606.3c-9.8,0-17.7-7.9-17.7-17.7s7.9-17.6,17.7-17.6s17.7,7.9,17.7,17.6
			S224.8,606.3,215,606.3z M433.2,561.1l-12.1-3.2c-0.3-3.8-1.2-7.5-2.9-11l8.8-8.8c4.1-4.1,4.1-10.8,0-14.9
			c-4.1-4.1-10.7-4.1-14.8,0l-8.8,8.8c-3.5-1.6-7.1-2.6-11-2.9l-3.2-12.1c-1.5-5.6-7.2-8.9-12.9-7.4c-5.6,1.5-8.9,7.3-7.4,12.9
			l3.2,11.9c-1.6,1.1-3.1,2.3-4.5,3.7c-1.4,1.4-2.5,2.9-3.6,4.5l-11.9-3.2c-5.6-1.5-11.4,1.9-12.9,7.4c-1.5,5.6,1.9,11.4,7.4,12.9
			l12,3.2c0.3,3.8,1.3,7.5,3,11l-8.8,8.8c-4.1,4.1-4.1,10.7,0,14.8c4.1,4.1,10.7,4.1,14.8,0l8.8-8.8c3.5,1.7,7.2,2.7,11,3l3.2,12
			c1.5,5.6,7.2,8.9,12.9,7.4c5.6-1.5,9-7.2,7.5-12.9l-3.2-11.9c1.5-1.1,3-2.2,4.5-3.6c1.4-1.4,2.5-2.9,3.6-4.5l11.9,3.2
			c5.6,1.5,11.4-1.9,12.9-7.4C442.1,568.4,438.8,562.7,433.2,561.1z M397.3,567.8c-4.1,4.1-10.8,4.1-14.9,0
			c-4.1-4.1-4.1-10.7,0-14.9c4.1-4.1,10.8-4.1,14.9,0C401.4,557.1,401.4,563.8,397.3,567.8z M77.9,507.4l-11.9,3.2
			c-1.1-1.5-2.2-3-3.6-4.4c-1.4-1.4-2.9-2.6-4.5-3.6l3.2-11.9c1.5-5.6-1.8-11.4-7.4-12.9c-5.6-1.5-11.4,1.8-12.9,7.4l-3.2,12.1
			c-3.8,0.3-7.5,1.2-10.9,2.9l-8.8-8.8c-4.1-4.1-10.8-4.1-14.8,0c-4.1,4.1-4.1,10.8,0,14.9l8.8,8.8c-1.6,3.5-2.6,7.2-2.9,11l-12,3.2
			c-5.6,1.5-9,7.2-7.5,12.9c1.5,5.6,7.3,8.9,12.9,7.4l11.9-3.2c1.1,1.6,2.2,3.1,3.7,4.5c1.4,1.4,2.9,2.6,4.4,3.6l-3.2,11.9
			c-1.5,5.6,1.8,11.4,7.4,12.9c5.6,1.5,11.3-1.8,12.8-7.4l3.2-12c3.8-0.3,7.5-1.3,11-2.9l8.8,8.8c4.1,4.1,10.7,4,14.8,0
			c4.1-4.1,4.1-10.7,0-14.8l-8.8-8.8c1.7-3.5,2.7-7.2,2.9-11l12.1-3.2c5.6-1.5,8.9-7.2,7.4-12.9C89.3,509.3,83.6,505.9,77.9,507.4z
			 M47.6,535.8c-4.1,4.1-10.8,4.1-14.9,0c-4.1-4.1-4.1-10.8,0-14.8c4.1-4.1,10.8-4.1,14.9,0S51.6,531.8,47.6,535.8z M471,340.9
			c0-61.8-50.2-112-112-112c-5.3,0-10.6,0.4-15.8,1.1c-29.9-40.7-77-65.1-128.2-65.1S116.7,189.3,86.8,230
			c-5.2-0.8-10.5-1.1-15.8-1.1c-61.8,0-112,50.3-112,112s50.2,112,112,112c13.7,0,27.1-2.5,39.7-7.3c29,25.2,65.8,39.3,104.3,39.3
			c38.5,0,75.3-14.1,104.3-39.3c12.6,4.8,26,7.3,39.7,7.3C420.8,452.9,471,402.6,471,340.9z M313.1,406.2
			c-23.5,28.3-58.4,46.7-98.1,46.7c-39.6,0-74.6-18.4-98.1-46.7c-13,9.2-28.8,14.7-45.9,14.7c-44.2,0-80-35.8-80-80s35.8-80,80-80
			c10.8,0,21.1,2.2,30.4,6.1c21.2-41.4,63.9-70.1,113.6-70.1s92.3,28.7,113.5,70.1c9.4-3.9,19.7-6.1,30.5-6.1c44.2,0,80,35.8,80,80
			s-35.8,80-80,80C341.9,420.9,326.1,415.4,313.1,406.2z"/>
	</g>
</g>
</svg>
