<?xml version="1.0" encoding="utf-8"?>
<!-- Generator: Adobe Illustrator 18.1.1, SVG Export Plug-In . SVG Version: 6.00 Build 0)  -->
<!DOCTYPE svg PUBLIC "-//W3C//DTD SVG 1.1//EN" "http://www.w3.org/Graphics/SVG/1.1/DTD/svg11.dtd">
<svg version="1.1" id="Layer_1" xmlns="http://www.w3.org/2000/svg" xmlns:xlink="http://www.w3.org/1999/xlink" x="0px" y="0px"
	 viewBox="-41 164.9 512 512" enable-background="new -41 164.9 512 512" xml:space="preserve">
<path fill="#FFFFFF" d="M308.9,508c-49.9,49.9-131.1,49.9-181,0c-49.9-49.9-49.9-131.1,0-181c13.2-13.2,29.3-23.2,47.8-29.8
	c5.8-2,12.3-0.6,16.6,3.8c4.4,4.4,5.9,10.8,3.8,16.6c-12.5,35.4-4,73.7,22.2,99.9c26.2,26.2,64.5,34.8,99.9,22.2
	c5.8-2.1,12.3-0.6,16.6,3.8c4.4,4.3,5.8,10.8,3.8,16.6C332.1,478.7,322.1,494.8,308.9,508z M150.5,349.6
	c-37.4,37.4-37.4,98.4,0,135.8c40,40,108.1,36.4,143-8.2c-36,2.2-71.4-10.7-97.8-37.1c-26.4-26.4-39.3-61.8-37.1-97.7
	C155.8,344.7,153,347.1,150.5,349.6z"/>
</svg>
