<?xml version="1.0" encoding="utf-8"?>
<!-- Generator: Adobe Illustrator 18.1.1, SVG Export Plug-In . SVG Version: 6.00 Build 0)  -->
<!DOCTYPE svg PUBLIC "-//W3C//DTD SVG 1.1//EN" "http://www.w3.org/Graphics/SVG/1.1/DTD/svg11.dtd">
<svg version="1.1" id="Layer_1" xmlns="http://www.w3.org/2000/svg" xmlns:xlink="http://www.w3.org/1999/xlink" x="0px" y="0px"
	 viewBox="-41 164.9 512 512" enable-background="new -41 164.9 512 512" xml:space="preserve">
<g>
	<g>
		<path fill="#FFFFFF" d="M167,228.9c8.8,0,16-7.2,16-16v-32c0-8.8-7.2-16-16-16s-16,7.2-16,16v32C151,221.7,158.2,228.9,167,228.9z
			 M291.4,271.1l22.6-22.6c6.2-6.2,6.2-16.4,0-22.6c-6.2-6.2-16.4-6.2-22.6,0l-22.6,22.6c-6.2,6.2-6.2,16.4,0,22.6
			C275.1,277.3,285.2,277.3,291.4,271.1z M-25,388.9H7c8.8,0,16-7.2,16-16s-7.2-16-16-16h-32c-8.8,0-16,7.2-16,16
			S-33.8,388.9-25,388.9z M311,372.9c0,8.8,7.2,16,16,16h32c8.8,0,16-7.2,16-16s-7.2-16-16-16h-32C318.2,356.9,311,364.1,311,372.9z
			 M42.5,271.1c6.3,6.2,16.4,6.2,22.6,0c6.3-6.2,6.3-16.4,0-22.6l-22.6-22.6c-6.2-6.2-16.4-6.2-22.6,0c-6.2,6.2-6.2,16.4,0,22.6
			L42.5,271.1z M359,420.9c-5.3,0-10.6,0.4-15.8,1.1c-16.8-22.9-39.1-40.3-64.5-51.5c-1.3-60.6-50.8-109.6-111.8-109.6
			c-61.8,0-112,50.2-112,112c0,17.4,4.3,33.8,11.5,48.4C6.9,423.8-41,472.7-41,532.9c0,61.8,50.2,112,112,112
			c13.7,0,27.1-2.5,39.7-7.3c29,25.2,65.8,39.3,104.3,39.3c38.5,0,75.3-14.1,104.3-39.3c12.6,4.8,26,7.3,39.7,7.3
			c61.8,0,112-50.2,112-112S420.8,420.9,359,420.9z M167,292.9c39.8,0,72.6,29.2,78.7,67.2c-10-2-20.2-3.2-30.7-3.2
			c-45.9,0-88.5,19.8-118.4,53.2C90.7,399,87,386.4,87,372.9C87,328.7,122.8,292.9,167,292.9z M359,612.9
			c-17.1,0-32.9-5.5-45.9-14.7c-23.5,28.3-58.4,46.7-98.1,46.7c-39.6,0-74.6-18.4-98.1-46.7c-13,9.2-28.8,14.7-45.9,14.7
			c-44.2,0-80-35.8-80-80s35.8-80,80-80c7.8,0,15.1,1.5,22.1,3.5c2.8,0.8,5.7,1.4,8.3,2.5c4.4-8.6,9.9-16.4,16-23.8
			c23.4-28.1,58.1-46.3,97.6-46.3c10.1,0,19.8,1.5,29.2,3.7c10.6,2.5,20.5,6.3,29.8,11.3c23.3,12.4,42.4,31.5,54.5,55.1
			c9.4-3.9,19.7-6.1,30.5-6.1c44.2,0,80,35.8,80,80S403.2,612.9,359,612.9z"/>
	</g>
</g>
</svg>
