<?xml version="1.0" encoding="utf-8"?>
<!-- Generator: Adobe Illustrator 18.1.1, SVG Export Plug-In . SVG Version: 6.00 Build 0)  -->
<!DOCTYPE svg PUBLIC "-//W3C//DTD SVG 1.1//EN" "http://www.w3.org/Graphics/SVG/1.1/DTD/svg11.dtd">
<svg version="1.1" id="Layer_1" xmlns="http://www.w3.org/2000/svg" xmlns:xlink="http://www.w3.org/1999/xlink" x="0px" y="0px"
	 viewBox="-41 164.9 512 512" enable-background="new -41 164.9 512 512" xml:space="preserve">
<path fill="#FFFFFF" d="M394.1,427.1c4.9-3.6,9.8-7.2,14.2-11.6c13.2-13.2,23.3-29.3,29.8-47.9c2.1-5.8,0.6-12.3-3.8-16.6
	c-4.4-4.4-10.8-5.9-16.6-3.8c-35.4,12.5-73.7,4-99.9-22.2c-26.3-26.3-34.8-64.5-22.3-99.9c2-5.8,0.6-12.3-3.8-16.6
	c-4.3-4.3-10.8-5.8-16.6-3.8c-18.5,6.6-34.6,16.6-47.8,29.8c-33.5,33.5-44,81-32.5,123.8c-43.2,5.5-82.1,28.5-108,63.8
	c-5.2-0.8-10.5-1.1-15.8-1.1c-61.8,0-112,50.2-112,112c0,61.7,50.2,112,112,112c13.7,0,27.1-2.5,39.7-7.3
	c29,25.2,65.8,39.3,104.3,39.3c38.5,0,75.3-14.1,104.3-39.3c12.6,4.8,26,7.3,39.7,7.3c61.8,0,112-50.2,112-112
	C471,483.5,438.6,441.9,394.1,427.1z M249.9,257.1c2.5-2.6,5.3-5,8.1-7.2c-2.2,36,10.7,71.4,37.1,97.7
	c26.4,26.4,61.8,39.3,97.8,37.1c-13.8,17.6-32.8,28.5-53.1,33.2c-27.4-34.8-67.6-56.6-112-60.2C215.6,323.7,222.8,284.2,249.9,257.1
	z M359,612.9c-17.1,0-32.9-5.5-45.9-14.7c-23.5,28.3-58.4,46.7-98.1,46.7c-39.6,0-74.6-18.4-98.1-46.7c-13,9.2-28.8,14.7-45.9,14.7
	c-44.2,0-80-35.8-80-80c0-44.2,35.8-80,80-80c10.8,0,21.1,2.2,30.4,6.1c20.2-39.4,59.8-66.9,106.3-69.5c2.4-0.1,4.8-0.5,7.2-0.5
	c12.9,0,25.3,2,37,5.6c15.8,4.8,30.2,12.7,42.7,22.9c11.9,9.7,21.9,21.6,29.8,34.9c1.3,2.2,2.8,4.4,4,6.7c9.4-3.9,19.7-6.1,30.5-6.1
	c44.2,0,80,35.8,80,80S403.2,612.9,359,612.9z"/>
</svg>
